<svg width="80" height="61" viewBox="0 0 80 61" fill="none" xmlns="http://www.w3.org/2000/svg">
<path d="M79.6821 25.6322C79.6821 32.7148 77.0517 39.5665 71.7912 46.1872C66.6853 52.8079 60.6512 57.581 53.6886 60.5063C52.9151 60.8143 52.3735 60.7374 52.064 60.2754C51.9093 59.9675 52.1414 59.5826 52.7603 59.1207C58.3304 56.6571 62.5852 53.0389 65.5249 48.2658C68.4647 43.6467 69.9345 38.1808 69.9345 31.868C69.9345 30.2055 69.655 28.441 69.4703 26.787C68.2326 28.1728 66.7628 29.2505 65.0607 30.0204C63.3588 30.6363 61.5021 30.9443 59.4908 30.9443C55.3132 30.9443 51.7546 29.5585 48.8148 26.787C46.0298 24.0155 44.6373 20.5512 44.6373 16.3941C44.6373 11.929 46.1073 8.15673 49.0469 5.07734C52.1414 1.99795 56.0868 0.458252 60.8833 0.458252C66.608 0.458252 71.1723 2.7678 74.5762 7.38689C77.9801 11.852 79.6821 17.9337 79.6821 25.6322Z" fill="#202020"/>
<path d="M35.2608 25.6322C35.2608 32.7148 32.6305 39.5665 27.3699 46.1872C22.2641 52.8079 16.2298 57.581 9.26735 60.5063C8.49374 60.8143 7.95221 60.7374 7.64276 60.2754C7.48805 59.9675 7.72012 59.5826 8.33902 59.1207C13.9091 56.6571 18.164 53.0389 21.1036 48.2658C24.0434 43.6467 25.5133 38.1808 25.5133 31.868C25.5133 30.2055 25.2338 28.441 25.0491 26.787C23.8113 28.1728 22.3414 29.2505 20.6395 30.0204C18.9375 30.6363 17.0809 30.9443 15.0694 30.9443C10.892 30.9443 7.33332 29.5585 4.39359 26.787C1.60857 24.0155 0.216064 20.5512 0.216064 16.3941C0.216064 11.929 1.68593 8.15673 4.62566 5.07734C7.72012 1.99795 11.6656 0.458252 16.4619 0.458252C22.1867 0.458252 26.751 2.7678 30.155 7.38689C33.5588 11.852 35.2608 17.9337 35.2608 25.6322Z" fill="#202020"/>
</svg>
