<svg width="185" height="180" viewBox="0 0 185 180" fill="none" xmlns="http://www.w3.org/2000/svg">
<path d="M54.6809 111.415C49.8871 111.415 44.9334 111.521 40.7256 111.308C23.4147 111.308 11.7498 102.149 3.01444 88.3581C-1.83261 80.6903 0.138168 77.176 9.1931 76.3772C22.0831 75.3123 49.7272 74.2473 60.8595 73.3954L26.6105 19.3481C25.8116 18.0701 26.6105 16.4194 28.0487 16.2064C43.1225 14.2362 54.7874 17.8039 63.7358 26.5366C73.3233 35.8551 81.8989 49.3802 90.5277 60.7222C100.062 48.5815 117.799 20.2533 128.239 5.39698C132.873 -1.20582 138.093 -1.41883 142.301 4.43851C147.414 11.2543 151.515 18.8156 154.498 26.8029C155.777 30.6368 153.593 36.4409 151.302 40.328C145.23 50.4985 138.199 60.1365 130.316 71.7979C137.187 72.6498 140.756 72.8629 146.508 73.768C161.423 76.0578 172.288 81.7554 180.971 92.5116C182.249 94.109 185.285 99.647 183.9 104.013C183.207 106.25 177.456 107.9 173.886 108.166C160.997 109.125 131.382 109.178 122.859 109.019C126.694 115.088 130.423 121.373 133.299 126.005C139.85 136.389 146.456 146.825 153.06 157.208C157.109 163.545 155.244 167.485 148.266 169.616C142.194 171.425 135.696 171.425 129.784 169.189C123.871 166.953 119.184 162.48 115.615 157.262C109.277 147.837 97.4521 128.721 94.1497 124.46C84.7219 138.411 73.856 154.812 64.7478 168.816C55.6396 182.821 49.1413 182.608 40.4593 168.124C33.3219 156.25 30.5521 144.535 40.4593 132.395C45.0933 126.005 54.6809 111.415 54.6809 111.415Z" fill="#FFFDF8"/>
</svg>
