<svg width="25" height="25" viewBox="0 0 25 25" fill="none" xmlns="http://www.w3.org/2000/svg">
<path d="M5.57364 24.2492V8.05567H0.428739V24.2492H5.57364ZM3.00223 5.84492C4.7959 5.84492 5.91281 4.60113 5.91281 3.04749C5.87863 1.45809 4.7959 0.249512 3.0364 0.249512C1.27535 0.249512 0.125305 1.45809 0.125305 3.04749C0.125305 4.60168 1.24169 5.84492 2.96857 5.84492H3.00223ZM8.42105 24.2492H13.5654V15.2069C13.5654 14.7231 13.5991 14.2388 13.7348 13.8937C14.1065 12.9262 14.9532 11.9251 16.3745 11.9251C18.2355 11.9251 18.9806 13.41 18.9806 15.5872V24.2492H24.125V14.9642C24.125 9.99068 21.5873 7.67592 18.2024 7.67592C15.4269 7.67592 14.2085 9.29837 13.5313 10.404H13.5654V8.05621H8.42105C8.48837 9.57519 8.42105 24.2498 8.42105 24.2492Z" fill="#FFFDF8"/>
</svg>
